  0
SECTION
  2
HEADER
  9
$ACADVER
  1
AC1009
  9
$FILLMODE
 70
 0
  9
$SPLFRAME
 70
 1
  9
$EXTMIN
 10
0
 20
0
 30
0.0
  9
$EXTMAX
 10
1058.33
 20
1058.33
 30
0.0
  0
ENDSEC
  0
SECTION
  2
TABLES
  0
TABLE
  2
LAYER
 70
1
  0
LAYER
  2
0
 70
     0
 62
     7
  6
CONTINUOUS
  0
ENDTAB
  0
ENDSEC
  0
SECTION
  2
ENTITIES
  0
LINE
  8
0
 62
     0
 10
0.0950846
 20
95.5075
 30
0.0
 11
95.3452
 21
95.5075
 31
0.0
  0
LINE
  8
0
 62
     0
 10
95.3452
 20
95.5075
 30
0.0
 11
95.3452
 21
0.257693
 31
0.0
  0
LINE
  8
0
 62
     0
 10
95.3452
 20
0.257693
 30
0.0
 11
0.0950846
 21
0.257693
 31
0.0
  0
LINE
  8
0
 62
     0
 10
0.0950846
 20
0.257693
 30
0.0
 11
0.0950846
 21
95.5075
 31
0.0
  0
LINE
  8
0
 62
     0
 10
31.1947
 20
16.7831
 30
0.0
 11
31.1947
 21
12.0826
 31
0.0
  0
LINE
  8
0
 62
     0
 10
31.1947
 20
12.0826
 30
0.0
 11
29.6692
 21
12.0826
 31
0.0
  0
LINE
  8
0
 62
     0
 10
29.6692
 20
12.0826
 30
0.0
 11
29.6692
 21
15.3128
 31
0.0
  0
LINE
  8
0
 62
     0
 10
29.6692
 20
15.3128
 30
0.0
 11
22.9196
 21
15.3128
 31
0.0
  0
LINE
  8
0
 62
     0
 10
22.9196
 20
15.3128
 30
0.0
 11
22.9196
 21
12.0826
 31
0.0
  0
LINE
  8
0
 62
     0
 10
22.9196
 20
12.0826
 30
0.0
 11
22.0941
 21
12.0826
 31
0.0
  0
LINE
  8
0
 62
     0
 10
22.0941
 20
12.0826
 30
0.0
 11
22.0941
 21
9.28384
 31
0.0
  0
LINE
  8
0
 62
     0
 10
22.0941
 20
9.28384
 30
0.0
 11
22.9196
 21
9.28384
 31
0.0
  0
LINE
  8
0
 62
     0
 10
22.9196
 20
9.28384
 30
0.0
 11
22.9196
 21
3.01377
 31
0.0
  0
LINE
  8
0
 62
     0
 10
22.9196
 20
3.01377
 30
0.0
 11
24.6448
 21
3.01377
 31
0.0
  0
LINE
  8
0
 62
     0
 10
24.6448
 20
3.01377
 30
0.0
 11
24.6448
 21
1.8135
 31
0.0
  0
LINE
  8
0
 62
     0
 10
24.6448
 20
1.8135
 30
0.0
 11
27.9438
 21
1.8135
 31
0.0
  0
LINE
  8
0
 62
     0
 10
27.9438
 20
1.8135
 30
0.0
 11
27.9438
 21
3.01377
 31
0.0
  0
LINE
  8
0
 62
     0
 10
27.9438
 20
3.01377
 30
0.0
 11
29.6692
 21
3.01377
 31
0.0
  0
LINE
  8
0
 62
     0
 10
29.6692
 20
3.01377
 30
0.0
 11
29.6692
 21
7.48273
 31
0.0
  0
LINE
  8
0
 62
     0
 10
29.6692
 20
7.48273
 30
0.0
 11
31.1947
 21
7.48273
 31
0.0
  0
LINE
  8
0
 62
     0
 10
31.1947
 20
7.48273
 30
0.0
 11
31.1947
 21
2.78364
 31
0.0
  0
LINE
  8
0
 62
     0
 10
31.1947
 20
2.78364
 30
0.0
 11
45.194
 21
2.78364
 31
0.0
  0
LINE
  8
0
 62
     0
 10
45.194
 20
2.78364
 30
0.0
 11
45.194
 21
7.48273
 31
0.0
  0
LINE
  8
0
 62
     0
 10
45.194
 20
7.48273
 30
0.0
 11
46.7198
 21
7.48273
 31
0.0
  0
LINE
  8
0
 62
     0
 10
46.7198
 20
7.48273
 30
0.0
 11
46.7198
 21
3.01377
 31
0.0
  0
LINE
  8
0
 62
     0
 10
46.7198
 20
3.01377
 30
0.0
 11
48.4449
 21
3.01377
 31
0.0
  0
LINE
  8
0
 62
     0
 10
48.4449
 20
3.01377
 30
0.0
 11
48.4449
 21
1.8135
 31
0.0
  0
LINE
  8
0
 62
     0
 10
48.4449
 20
1.8135
 30
0.0
 11
51.744
 21
1.8135
 31
0.0
  0
LINE
  8
0
 62
     0
 10
51.744
 20
1.8135
 30
0.0
 11
51.744
 21
3.01377
 31
0.0
  0
LINE
  8
0
 62
     0
 10
51.744
 20
3.01377
 30
0.0
 11
53.4691
 21
3.01377
 31
0.0
  0
LINE
  8
0
 62
     0
 10
53.4691
 20
3.01377
 30
0.0
 11
53.4691
 21
9.28384
 31
0.0
  0
LINE
  8
0
 62
     0
 10
53.4691
 20
9.28384
 30
0.0
 11
54.2946
 21
9.28384
 31
0.0
  0
LINE
  8
0
 62
     0
 10
54.2946
 20
9.28384
 30
0.0
 11
54.2946
 21
12.0826
 31
0.0
  0
LINE
  8
0
 62
     0
 10
54.2946
 20
12.0826
 30
0.0
 11
53.4691
 21
12.0826
 31
0.0
  0
LINE
  8
0
 62
     0
 10
53.4691
 20
12.0826
 30
0.0
 11
53.4691
 21
15.3128
 31
0.0
  0
LINE
  8
0
 62
     0
 10
53.4691
 20
15.3128
 30
0.0
 11
46.7198
 21
15.3128
 31
0.0
  0
LINE
  8
0
 62
     0
 10
46.7198
 20
15.3128
 30
0.0
 11
46.7198
 21
12.0826
 31
0.0
  0
LINE
  8
0
 62
     0
 10
46.7198
 20
12.0826
 30
0.0
 11
45.194
 21
12.0826
 31
0.0
  0
LINE
  8
0
 62
     0
 10
45.194
 20
12.0826
 30
0.0
 11
45.194
 21
16.7831
 31
0.0
  0
LINE
  8
0
 62
     0
 10
45.194
 20
16.7831
 30
0.0
 11
31.1947
 21
16.7831
 31
0.0
  0
LINE
  8
0
 62
     0
 10
2.61965
 20
16.7831
 30
0.0
 11
16.6192
 21
16.7831
 31
0.0
  0
LINE
  8
0
 62
     0
 10
16.6192
 20
16.7831
 30
0.0
 11
16.6192
 21
2.78364
 31
0.0
  0
LINE
  8
0
 62
     0
 10
16.6192
 20
2.78364
 30
0.0
 11
2.61965
 21
2.78364
 31
0.0
  0
LINE
  8
0
 62
     0
 10
2.61965
 20
2.78364
 30
0.0
 11
2.61965
 21
16.7831
 31
0.0
  0
LINE
  8
0
 62
     0
 10
59.7697
 20
16.7831
 30
0.0
 11
73.769
 21
16.7831
 31
0.0
  0
LINE
  8
0
 62
     0
 10
73.769
 20
16.7831
 30
0.0
 11
73.769
 21
2.78364
 31
0.0
  0
LINE
  8
0
 62
     0
 10
73.769
 20
2.78364
 30
0.0
 11
59.7697
 21
2.78364
 31
0.0
  0
LINE
  8
0
 62
     0
 10
59.7697
 20
2.78364
 30
0.0
 11
59.7697
 21
16.7831
 31
0.0
  0
LINE
  8
0
 62
     0
 10
85.32
 20
35.4087
 30
0.0
 11
85.32
 21
34.5833
 31
0.0
  0
LINE
  8
0
 62
     0
 10
85.32
 20
34.5833
 30
0.0
 11
79.0497
 21
34.5833
 31
0.0
  0
LINE
  8
0
 62
     0
 10
79.0497
 20
34.5833
 30
0.0
 11
79.0497
 21
32.8579
 31
0.0
  0
LINE
  8
0
 62
     0
 10
79.0497
 20
32.8579
 30
0.0
 11
77.8496
 21
32.8579
 31
0.0
  0
LINE
  8
0
 62
     0
 10
77.8496
 20
32.8579
 30
0.0
 11
77.8496
 21
29.5589
 31
0.0
  0
LINE
  8
0
 62
     0
 10
77.8496
 20
29.5589
 30
0.0
 11
79.0497
 21
29.5589
 31
0.0
  0
LINE
  8
0
 62
     0
 10
79.0497
 20
29.5589
 30
0.0
 11
79.0497
 21
27.8336
 31
0.0
  0
LINE
  8
0
 62
     0
 10
79.0497
 20
27.8336
 30
0.0
 11
83.5201
 21
27.8336
 31
0.0
  0
LINE
  8
0
 62
     0
 10
83.5201
 20
27.8336
 30
0.0
 11
83.5201
 21
26.3081
 31
0.0
  0
LINE
  8
0
 62
     0
 10
83.5201
 20
26.3081
 30
0.0
 11
78.8197
 21
26.3081
 31
0.0
  0
LINE
  8
0
 62
     0
 10
78.8197
 20
26.3081
 30
0.0
 11
78.8197
 21
12.3086
 31
0.0
  0
LINE
  8
0
 62
     0
 10
78.8197
 20
12.3086
 30
0.0
 11
83.5201
 21
12.3086
 31
0.0
  0
LINE
  8
0
 62
     0
 10
83.5201
 20
12.3086
 30
0.0
 11
83.5201
 21
10.7831
 31
0.0
  0
LINE
  8
0
 62
     0
 10
83.5201
 20
10.7831
 30
0.0
 11
79.0497
 21
10.7831
 31
0.0
  0
LINE
  8
0
 62
     0
 10
79.0497
 20
10.7831
 30
0.0
 11
79.0497
 21
9.05785
 31
0.0
  0
LINE
  8
0
 62
     0
 10
79.0497
 20
9.05785
 30
0.0
 11
77.8496
 21
9.05785
 31
0.0
  0
LINE
  8
0
 62
     0
 10
77.8496
 20
9.05785
 30
0.0
 11
77.8496
 21
5.75881
 31
0.0
  0
LINE
  8
0
 62
     0
 10
77.8496
 20
5.75881
 30
0.0
 11
79.0497
 21
5.75881
 31
0.0
  0
LINE
  8
0
 62
     0
 10
79.0497
 20
5.75881
 30
0.0
 11
79.0497
 21
4.03352
 31
0.0
  0
LINE
  8
0
 62
     0
 10
79.0497
 20
4.03352
 30
0.0
 11
85.32
 21
4.03352
 31
0.0
  0
LINE
  8
0
 62
     0
 10
85.32
 20
4.03352
 30
0.0
 11
85.32
 21
3.20807
 31
0.0
  0
LINE
  8
0
 62
     0
 10
85.32
 20
3.20807
 30
0.0
 11
88.1186
 21
3.20807
 31
0.0
  0
LINE
  8
0
 62
     0
 10
88.1186
 20
3.20807
 30
0.0
 11
88.1186
 21
4.03352
 31
0.0
  0
LINE
  8
0
 62
     0
 10
88.1186
 20
4.03352
 30
0.0
 11
91.35
 21
4.03352
 31
0.0
  0
LINE
  8
0
 62
     0
 10
91.35
 20
4.03352
 30
0.0
 11
91.35
 21
10.7831
 31
0.0
  0
LINE
  8
0
 62
     0
 10
91.35
 20
10.7831
 30
0.0
 11
88.1186
 21
10.7831
 31
0.0
  0
LINE
  8
0
 62
     0
 10
88.1186
 20
10.7831
 30
0.0
 11
88.1186
 21
12.3086
 31
0.0
  0
LINE
  8
0
 62
     0
 10
88.1186
 20
12.3086
 30
0.0
 11
92.819
 21
12.3086
 31
0.0
  0
LINE
  8
0
 62
     0
 10
92.819
 20
12.3086
 30
0.0
 11
92.819
 21
26.3081
 31
0.0
  0
LINE
  8
0
 62
     0
 10
92.819
 20
26.3081
 30
0.0
 11
88.1186
 21
26.3081
 31
0.0
  0
LINE
  8
0
 62
     0
 10
88.1186
 20
26.3081
 30
0.0
 11
88.1186
 21
27.8336
 31
0.0
  0
LINE
  8
0
 62
     0
 10
88.1186
 20
27.8336
 30
0.0
 11
91.35
 21
27.8336
 31
0.0
  0
LINE
  8
0
 62
     0
 10
91.35
 20
27.8336
 30
0.0
 11
91.35
 21
34.5833
 31
0.0
  0
LINE
  8
0
 62
     0
 10
91.35
 20
34.5833
 30
0.0
 11
88.1186
 21
34.5833
 31
0.0
  0
LINE
  8
0
 62
     0
 10
88.1186
 20
34.5833
 30
0.0
 11
88.1186
 21
35.4087
 31
0.0
  0
LINE
  8
0
 62
     0
 10
88.1186
 20
35.4087
 30
0.0
 11
85.32
 21
35.4087
 31
0.0
  0
LINE
  8
0
 62
     0
 10
2.61965
 20
35.833
 30
0.0
 11
16.6192
 21
35.833
 31
0.0
  0
LINE
  8
0
 62
     0
 10
16.6192
 20
35.833
 30
0.0
 11
16.6192
 21
21.8336
 31
0.0
  0
LINE
  8
0
 62
     0
 10
16.6192
 20
21.8336
 30
0.0
 11
2.61965
 21
21.8336
 31
0.0
  0
LINE
  8
0
 62
     0
 10
2.61965
 20
21.8336
 30
0.0
 11
2.61965
 21
35.833
 31
0.0
  0
LINE
  8
0
 62
     0
 10
21.6697
 20
35.833
 30
0.0
 11
35.669
 21
35.833
 31
0.0
  0
LINE
  8
0
 62
     0
 10
35.669
 20
35.833
 30
0.0
 11
35.669
 21
21.8336
 31
0.0
  0
LINE
  8
0
 62
     0
 10
35.669
 20
21.8336
 30
0.0
 11
21.6697
 21
21.8336
 31
0.0
  0
LINE
  8
0
 62
     0
 10
21.6697
 20
21.8336
 30
0.0
 11
21.6697
 21
35.833
 31
0.0
  0
LINE
  8
0
 62
     0
 10
40.7197
 20
35.833
 30
0.0
 11
54.719
 21
35.833
 31
0.0
  0
LINE
  8
0
 62
     0
 10
54.719
 20
35.833
 30
0.0
 11
54.719
 21
21.8336
 31
0.0
  0
LINE
  8
0
 62
     0
 10
54.719
 20
21.8336
 30
0.0
 11
40.7197
 21
21.8336
 31
0.0
  0
LINE
  8
0
 62
     0
 10
40.7197
 20
21.8336
 30
0.0
 11
40.7197
 21
35.833
 31
0.0
  0
LINE
  8
0
 62
     0
 10
59.7697
 20
35.833
 30
0.0
 11
73.769
 21
35.833
 31
0.0
  0
LINE
  8
0
 62
     0
 10
73.769
 20
35.833
 30
0.0
 11
73.769
 21
21.8336
 31
0.0
  0
LINE
  8
0
 62
     0
 10
73.769
 20
21.8336
 30
0.0
 11
59.7697
 21
21.8336
 31
0.0
  0
LINE
  8
0
 62
     0
 10
59.7697
 20
21.8336
 30
0.0
 11
59.7697
 21
35.833
 31
0.0
  0
LINE
  8
0
 62
     0
 10
2.61965
 20
54.8831
 30
0.0
 11
16.6192
 21
54.8831
 31
0.0
  0
LINE
  8
0
 62
     0
 10
16.6192
 20
54.8831
 30
0.0
 11
16.6192
 21
40.8838
 31
0.0
  0
LINE
  8
0
 62
     0
 10
16.6192
 20
40.8838
 30
0.0
 11
2.61965
 21
40.8838
 31
0.0
  0
LINE
  8
0
 62
     0
 10
2.61965
 20
40.8838
 30
0.0
 11
2.61965
 21
54.8831
 31
0.0
  0
LINE
  8
0
 62
     0
 10
21.6697
 20
54.8831
 30
0.0
 11
35.669
 21
54.8831
 31
0.0
  0
LINE
  8
0
 62
     0
 10
35.669
 20
54.8831
 30
0.0
 11
35.669
 21
40.8838
 31
0.0
  0
LINE
  8
0
 62
     0
 10
35.669
 20
40.8838
 30
0.0
 11
21.6697
 21
40.8838
 31
0.0
  0
LINE
  8
0
 62
     0
 10
21.6697
 20
40.8838
 30
0.0
 11
21.6697
 21
54.8831
 31
0.0
  0
LINE
  8
0
 62
     0
 10
40.7197
 20
54.8831
 30
0.0
 11
54.719
 21
54.8831
 31
0.0
  0
LINE
  8
0
 62
     0
 10
54.719
 20
54.8831
 30
0.0
 11
54.719
 21
40.8838
 31
0.0
  0
LINE
  8
0
 62
     0
 10
54.719
 20
40.8838
 30
0.0
 11
40.7197
 21
40.8838
 31
0.0
  0
LINE
  8
0
 62
     0
 10
40.7197
 20
40.8838
 30
0.0
 11
40.7197
 21
54.8831
 31
0.0
  0
LINE
  8
0
 62
     0
 10
59.7697
 20
54.8831
 30
0.0
 11
73.769
 21
54.8831
 31
0.0
  0
LINE
  8
0
 62
     0
 10
73.769
 20
54.8831
 30
0.0
 11
73.769
 21
40.8838
 31
0.0
  0
LINE
  8
0
 62
     0
 10
73.769
 20
40.8838
 30
0.0
 11
59.7697
 21
40.8838
 31
0.0
  0
LINE
  8
0
 62
     0
 10
59.7697
 20
40.8838
 30
0.0
 11
59.7697
 21
54.8831
 31
0.0
  0
LINE
  8
0
 62
     0
 10
85.32
 20
73.5087
 30
0.0
 11
85.32
 21
72.6832
 31
0.0
  0
LINE
  8
0
 62
     0
 10
85.32
 20
72.6832
 30
0.0
 11
79.0497
 21
72.6832
 31
0.0
  0
LINE
  8
0
 62
     0
 10
79.0497
 20
72.6832
 30
0.0
 11
79.0497
 21
70.9581
 31
0.0
  0
LINE
  8
0
 62
     0
 10
79.0497
 20
70.9581
 30
0.0
 11
77.8496
 21
70.9581
 31
0.0
  0
LINE
  8
0
 62
     0
 10
77.8496
 20
70.9581
 30
0.0
 11
77.8496
 21
67.6589
 31
0.0
  0
LINE
  8
0
 62
     0
 10
77.8496
 20
67.6589
 30
0.0
 11
79.0497
 21
67.6589
 31
0.0
  0
LINE
  8
0
 62
     0
 10
79.0497
 20
67.6589
 30
0.0
 11
79.0497
 21
65.9335
 31
0.0
  0
LINE
  8
0
 62
     0
 10
79.0497
 20
65.9335
 30
0.0
 11
83.5201
 21
65.9335
 31
0.0
  0
LINE
  8
0
 62
     0
 10
83.5201
 20
65.9335
 30
0.0
 11
83.5201
 21
64.4081
 31
0.0
  0
LINE
  8
0
 62
     0
 10
83.5201
 20
64.4081
 30
0.0
 11
78.8197
 21
64.4081
 31
0.0
  0
LINE
  8
0
 62
     0
 10
78.8197
 20
64.4081
 30
0.0
 11
78.8197
 21
50.4088
 31
0.0
  0
LINE
  8
0
 62
     0
 10
78.8197
 20
50.4088
 30
0.0
 11
83.5201
 21
50.4088
 31
0.0
  0
LINE
  8
0
 62
     0
 10
83.5201
 20
50.4088
 30
0.0
 11
83.5201
 21
48.883
 31
0.0
  0
LINE
  8
0
 62
     0
 10
83.5201
 20
48.883
 30
0.0
 11
79.0497
 21
48.883
 31
0.0
  0
LINE
  8
0
 62
     0
 10
79.0497
 20
48.883
 30
0.0
 11
79.0497
 21
47.1579
 31
0.0
  0
LINE
  8
0
 62
     0
 10
79.0497
 20
47.1579
 30
0.0
 11
77.8496
 21
47.1579
 31
0.0
  0
LINE
  8
0
 62
     0
 10
77.8496
 20
47.1579
 30
0.0
 11
77.8496
 21
43.8587
 31
0.0
  0
LINE
  8
0
 62
     0
 10
77.8496
 20
43.8587
 30
0.0
 11
79.0497
 21
43.8587
 31
0.0
  0
LINE
  8
0
 62
     0
 10
79.0497
 20
43.8587
 30
0.0
 11
79.0497
 21
42.1337
 31
0.0
  0
LINE
  8
0
 62
     0
 10
79.0497
 20
42.1337
 30
0.0
 11
85.32
 21
42.1337
 31
0.0
  0
LINE
  8
0
 62
     0
 10
85.32
 20
42.1337
 30
0.0
 11
85.32
 21
41.3082
 31
0.0
  0
LINE
  8
0
 62
     0
 10
85.32
 20
41.3082
 30
0.0
 11
88.1186
 21
41.3082
 31
0.0
  0
LINE
  8
0
 62
     0
 10
88.1186
 20
41.3082
 30
0.0
 11
88.1186
 21
42.1337
 31
0.0
  0
LINE
  8
0
 62
     0
 10
88.1186
 20
42.1337
 30
0.0
 11
91.35
 21
42.1337
 31
0.0
  0
LINE
  8
0
 62
     0
 10
91.35
 20
42.1337
 30
0.0
 11
91.35
 21
48.883
 31
0.0
  0
LINE
  8
0
 62
     0
 10
91.35
 20
48.883
 30
0.0
 11
88.1186
 21
48.883
 31
0.0
  0
LINE
  8
0
 62
     0
 10
88.1186
 20
48.883
 30
0.0
 11
88.1186
 21
50.4088
 31
0.0
  0
LINE
  8
0
 62
     0
 10
88.1186
 20
50.4088
 30
0.0
 11
92.819
 21
50.4088
 31
0.0
  0
LINE
  8
0
 62
     0
 10
92.819
 20
50.4088
 30
0.0
 11
92.819
 21
64.4081
 31
0.0
  0
LINE
  8
0
 62
     0
 10
92.819
 20
64.4081
 30
0.0
 11
88.1186
 21
64.4081
 31
0.0
  0
LINE
  8
0
 62
     0
 10
88.1186
 20
64.4081
 30
0.0
 11
88.1186
 21
65.9335
 31
0.0
  0
LINE
  8
0
 62
     0
 10
88.1186
 20
65.9335
 30
0.0
 11
91.35
 21
65.9335
 31
0.0
  0
LINE
  8
0
 62
     0
 10
91.35
 20
65.9335
 30
0.0
 11
91.35
 21
72.6832
 31
0.0
  0
LINE
  8
0
 62
     0
 10
91.35
 20
72.6832
 30
0.0
 11
88.1186
 21
72.6832
 31
0.0
  0
LINE
  8
0
 62
     0
 10
88.1186
 20
72.6832
 30
0.0
 11
88.1186
 21
73.5087
 31
0.0
  0
LINE
  8
0
 62
     0
 10
88.1186
 20
73.5087
 30
0.0
 11
85.32
 21
73.5087
 31
0.0
  0
LINE
  8
0
 62
     0
 10
2.61965
 20
73.9331
 30
0.0
 11
16.6192
 21
73.9331
 31
0.0
  0
LINE
  8
0
 62
     0
 10
16.6192
 20
73.9331
 30
0.0
 11
16.6192
 21
59.9338
 31
0.0
  0
LINE
  8
0
 62
     0
 10
16.6192
 20
59.9338
 30
0.0
 11
2.61965
 21
59.9338
 31
0.0
  0
LINE
  8
0
 62
     0
 10
2.61965
 20
59.9338
 30
0.0
 11
2.61965
 21
73.9331
 31
0.0
  0
LINE
  8
0
 62
     0
 10
21.6697
 20
73.9331
 30
0.0
 11
35.669
 21
73.9331
 31
0.0
  0
LINE
  8
0
 62
     0
 10
35.669
 20
73.9331
 30
0.0
 11
35.669
 21
59.9338
 31
0.0
  0
LINE
  8
0
 62
     0
 10
35.669
 20
59.9338
 30
0.0
 11
21.6697
 21
59.9338
 31
0.0
  0
LINE
  8
0
 62
     0
 10
21.6697
 20
59.9338
 30
0.0
 11
21.6697
 21
73.9331
 31
0.0
  0
LINE
  8
0
 62
     0
 10
40.7197
 20
73.9331
 30
0.0
 11
54.719
 21
73.9331
 31
0.0
  0
LINE
  8
0
 62
     0
 10
54.719
 20
73.9331
 30
0.0
 11
54.719
 21
59.9338
 31
0.0
  0
LINE
  8
0
 62
     0
 10
54.719
 20
59.9338
 30
0.0
 11
40.7197
 21
59.9338
 31
0.0
  0
LINE
  8
0
 62
     0
 10
40.7197
 20
59.9338
 30
0.0
 11
40.7197
 21
73.9331
 31
0.0
  0
LINE
  8
0
 62
     0
 10
59.7697
 20
73.9331
 30
0.0
 11
73.769
 21
73.9331
 31
0.0
  0
LINE
  8
0
 62
     0
 10
73.769
 20
73.9331
 30
0.0
 11
73.769
 21
59.9338
 31
0.0
  0
LINE
  8
0
 62
     0
 10
73.769
 20
59.9338
 30
0.0
 11
59.7697
 21
59.9338
 31
0.0
  0
LINE
  8
0
 62
     0
 10
59.7697
 20
59.9338
 30
0.0
 11
59.7697
 21
73.9331
 31
0.0
  0
LINE
  8
0
 62
     0
 10
2.61965
 20
92.9831
 30
0.0
 11
16.6192
 21
92.9831
 31
0.0
  0
LINE
  8
0
 62
     0
 10
16.6192
 20
92.9831
 30
0.0
 11
16.6192
 21
78.9838
 31
0.0
  0
LINE
  8
0
 62
     0
 10
16.6192
 20
78.9838
 30
0.0
 11
2.61965
 21
78.9838
 31
0.0
  0
LINE
  8
0
 62
     0
 10
2.61965
 20
78.9838
 30
0.0
 11
2.61965
 21
92.9831
 31
0.0
  0
LINE
  8
0
 62
     0
 10
21.6697
 20
92.9831
 30
0.0
 11
35.669
 21
92.9831
 31
0.0
  0
LINE
  8
0
 62
     0
 10
35.669
 20
92.9831
 30
0.0
 11
35.669
 21
78.9838
 31
0.0
  0
LINE
  8
0
 62
     0
 10
35.669
 20
78.9838
 30
0.0
 11
21.6697
 21
78.9838
 31
0.0
  0
LINE
  8
0
 62
     0
 10
21.6697
 20
78.9838
 30
0.0
 11
21.6697
 21
92.9831
 31
0.0
  0
LINE
  8
0
 62
     0
 10
40.7197
 20
92.9831
 30
0.0
 11
54.719
 21
92.9831
 31
0.0
  0
LINE
  8
0
 62
     0
 10
54.719
 20
92.9831
 30
0.0
 11
54.719
 21
78.9838
 31
0.0
  0
LINE
  8
0
 62
     0
 10
54.719
 20
78.9838
 30
0.0
 11
40.7197
 21
78.9838
 31
0.0
  0
LINE
  8
0
 62
     0
 10
40.7197
 20
78.9838
 30
0.0
 11
40.7197
 21
92.9831
 31
0.0
  0
LINE
  8
0
 62
     0
 10
59.7697
 20
92.9831
 30
0.0
 11
73.769
 21
92.9831
 31
0.0
  0
LINE
  8
0
 62
     0
 10
73.769
 20
92.9831
 30
0.0
 11
73.769
 21
78.9838
 31
0.0
  0
LINE
  8
0
 62
     0
 10
73.769
 20
78.9838
 30
0.0
 11
59.7697
 21
78.9838
 31
0.0
  0
LINE
  8
0
 62
     0
 10
59.7697
 20
78.9838
 30
0.0
 11
59.7697
 21
92.9831
 31
0.0
  0
LINE
  8
0
 62
     0
 10
78.8197
 20
92.9831
 30
0.0
 11
92.819
 21
92.9831
 31
0.0
  0
LINE
  8
0
 62
     0
 10
92.819
 20
92.9831
 30
0.0
 11
92.819
 21
78.9838
 31
0.0
  0
LINE
  8
0
 62
     0
 10
92.819
 20
78.9838
 30
0.0
 11
78.8197
 21
78.9838
 31
0.0
  0
LINE
  8
0
 62
     0
 10
78.8197
 20
78.9838
 30
0.0
 11
78.8197
 21
92.9831
 31
0.0
  0
ENDSEC
  0
EOF
